<svg id="Capa_1" enable-background="new 0 0 512.599 512.599" viewBox="0 0 512.599 512.599" xmlns="http://www.w3.org/2000/svg" width="300" height="300" version="1.1" xmlns:xlink="http://www.w3.org/1999/xlink" xmlns:svgjs="http://svgjs.dev/svgjs"><g width="100%" height="100%" transform="matrix(1,0,0,1,0,0)"><g><g><path d="m457.21 512.599h-401.821c-30.59 0-55.389-24.799-55.389-55.389v-401.821c0-30.59 24.799-55.389 55.389-55.389h401.82c30.591 0 55.389 24.799 55.389 55.389v401.82c.001 30.591-24.798 55.39-55.388 55.39z" fill="#f8c700" fill-opacity="1" data-original-color="#000000ff" stroke="none" stroke-opacity="1"/><path d="m457.21 512.599h-401.821c-30.59 0-55.389-24.799-55.389-55.389v-401.821c0-30.59 24.799-55.389 55.389-55.389h401.82c30.591 0 55.389 24.799 55.389 55.389v401.82c.001 30.591-24.798 55.39-55.388 55.39z" fill="#f8c700" fill-opacity="1" data-original-color="#000000ff" stroke="none" stroke-opacity="1"/></g><g fill="#fff"><path d="m157.493 263.452c-2.988-.155-5.758.112-8.051.574-19.178 3.867-30.009 20.182-27.878 41.381 1.928 19.178 21.332 35.35 39.295 35.832 1.859.044 3.702-.078 5.509-.386 19.438-3.314 24.526-24.422 21.322-45.154-3.618-23.407-19.452-31.658-30.197-32.247zm19.046 55.459c-.715 1.66-3.54 3.929-7.583 3.776-4.158-.321-8.786-3.342-9.412-10.867-.309-3.717 1.094-8.242 1.957-10.608 1.67-4.575.164-9.37-3.749-11.932-2.299-1.505-5.046-2.017-7.732-1.442-2.638.565-4.885 2.117-6.328 4.371-1.196 1.869-1.927 4.2-2.319 5.452-.105.335-.189.6-.252.771-.88 2.368-2.286 3.06-3.236 2.931-.45-.061-1.069-.362-1.465-1.447-1.08-2.963-.207-11.348 5.379-17.512 3.54-3.907 9.092-5.906 14.484-5.223 5.617.714 10.288 4.11 13.152 9.564 3.806 7.247.416 14.852-1.609 19.395-.219.492-.421.944-.592 1.35-1.27 3.016-1.337 5.65-.186 7.416.883 1.357 2.456 2.151 4.314 2.186.866.015 1.657-.169 2.355-.332.999-.232 2.031-.473 2.659.315.229.258.585.856.163 1.836z" fill="#000000" fill-opacity="1" data-original-color="#ffffffff" stroke="none" stroke-opacity="1"/><path d="m427.752 300.129c-2.258-2.771-4.98-5.007-7.924-6.587-.245-.812-.506-1.67-.783-2.556-.319-1.019-.639-1.979-.949-2.866 4.592-9.708 4.231-18.15 3.438-22.809-1.218-7.877-4.581-14.482-10.576-20.775-7.311-7.675-19.481-12.601-29.172-15.514-.118-4.607-.263-9.829-.405-13.082-.19-4.326-.584-13.291-3.398-22.343-2.084-7.44-5.155-14.271-8.957-20.048 14.679-17.624 22.641-35.829 22.616-52.07-.04-26.319-20.528-43.325-52.195-43.325-15.036 0-32.18 3.808-49.609 11.025-.029.012-.986.415-2.315.978-5.298-5.198-12.283-12.04-12.749-12.446-7.97-6.951-17.863-10.476-29.404-10.476-13.74 0-29.526 5.092-46.922 15.135-15.002 8.661-31.126 21.047-46.628 35.819-31.607 30.119-57.089 66.18-68.165 96.464-4.755 13.002-6.798 24.8-6.071 35.066.881 12.465 5.939 22.931 14.61 30.253l5.394 4.569c-1.709 7.405-2.161 15.244-1.34 23.409 1.556 15.479 9.396 30.192 22.077 41.426 10.196 9.034 22.696 14.904 35.276 16.713 11.291 22.536 28.535 41.531 50.232 55.239 23.408 14.789 51.424 23.07 81.02 23.949 1.887.056 3.796.085 5.675.085h.007c30.555 0 59.167-7.513 82.736-21.723 24.269-14.633 42.856-36.168 53.751-62.277.039-.094.077-.188.114-.283 1.881-4.839 8.02-21.871 8.02-37.873.002-11.564-4.026-18.932-7.404-23.077zm-12.208 56.444c-20.92 50.132-70.846 78.039-130.32 76.272-55.445-1.647-102.732-30.905-123.428-78.598-12.515.01-25.411-5.49-35.22-14.18-10.332-9.154-16.707-21.001-17.95-33.36-.967-9.622.217-18.57 3.232-26.38l-11.623-9.846c-53.184-44.905 113.16-229.801 166.362-183.395.268.234 18.099 17.729 18.142 17.772.071-.035 9.837-4.177 9.887-4.197 46.663-19.323 84.529-9.993 84.576 20.839.024 16.033-10.192 34.722-26.559 51.687 5.931 5.504 10.682 14.107 13.409 23.938 2.288 7.265 2.693 14.639 2.901 19.363.285 6.534.599 21.756.631 22.028.416.127 5.139 1.423 6.572 1.825 12.525 3.517 21.437 8.202 25.795 12.776 4.358 4.575 6.519 9 7.304 14.194.734 4.188.635 11.586-4.889 19.858 0 0 1.426 3.108 2.803 7.524 1.378 4.416 2.379 8.08 2.533 8.625 5.064 0 13.015 5.828 13.015 19.892.002 13.992-5.805 29.845-7.173 33.363z" fill="#000000" fill-opacity="1" data-original-color="#ffffffff" stroke="none" stroke-opacity="1"/><path d="m407.191 314.775c-2.68-1.65-5.886-1.076-5.886-1.076s-1.463-10.015-5.606-19.114c-12.281 9.693-28.094 16.505-40.134 19.961-13.893 3.988-32.693 7.052-53.668 5.802-11.637-.939-19.337-4.338-22.232 5.073 26.583 9.732 54.723 5.566 54.723 5.566.544-.055 1.03.341 1.086.885.045.443-.225.889-.614 1.054 0 0-21.615 10.036-55.944-.581.954 8.052 8.801 11.661 12.551 13.119 4.718 1.836 9.887 2.686 9.887 2.686 42.537 7.316 82.305-17.005 91.259-23.131.671-.459 1.116-.012.577.801-.517.78-.549.826-.877 1.249-10.958 14.136-40.419 30.504-78.746 30.498-16.717-.003-33.425-5.892-39.559-14.941-9.517-14.041-.471-34.536 15.388-32.4.018.003 5.425.615 6.946.785 19.826 2.208 48.52-.572 72.172-11.55 21.638-10.043 29.811-21.096 28.584-30.044-.333-2.411-1.411-4.938-3.729-7.316-3.888-3.806-10.055-6.769-20.457-9.689-3.436-.965-5.768-1.581-8.28-2.408-4.467-1.47-6.674-2.655-7.174-11.054-.219-3.673-.859-16.468-1.09-21.756-.408-9.265-1.522-21.929-9.38-27.158-2.047-1.362-4.325-2.02-6.718-2.147-2.344-.11-3.518.31-3.988.39-4.486.76-7.136 3.148-10.444 5.904-9.801 8.167-18.078 9.505-27.28 9.108-5.499-.23-11.327-1.087-18.007-1.482-1.3-.077-2.604-.157-3.906-.225-15.414-.789-31.946 12.525-34.693 31.428-3.825 26.314 15.231 39.911 20.732 47.89.703.954 1.514 2.301 1.514 3.577 0 1.526-.989 2.739-1.959 3.768-.001.002.003.007.001.008-15.725 16.169-20.756 41.859-14.83 63.271.74 2.675 1.678 5.232 2.788 7.674 13.905 32.493 57.038 47.624 99.177 33.861 5.645-1.844 10.99-4.125 16.01-6.762 9.451-4.63 17.712-10.998 24.516-18.323 11.178-11.683 17.83-24.382 20.412-40.03 1.267-8.373-.59-11.613-3.122-13.171zm-56.737-53.79c-.059 3.462-2.153 6.235-4.679 6.192-2.525-.043-4.525-2.885-4.466-6.347.059-3.463 2.153-6.236 4.679-6.193 2.525.043 4.524 2.885 4.466 6.348zm-11.579-40.948c4.913-.792 7.29 4.296 9.046 12.702 1.182 5.656.956 10.85-.358 13.863-2.27-.321-4.74-.309-7.318 0-1.96-2.504-3.72-6.547-4.707-11.276-1.757-8.407-1.575-14.497 3.337-15.289zm-16.483 45.192c1.114-2.267 4.536-2.866 7.645-1.339 3.108 1.527 4.725 4.603 3.612 6.87-1.114 2.267-4.537 2.866-7.645 1.339-3.109-1.528-4.725-4.603-3.612-6.87zm-19.261-2.545c-.505.789-1.592.646-3.893.388-4.165-.475-8.368-.751-14.739 1.53 0 0-2.316.929-3.35.929-.297 0-.544-.102-.753-.286-.153-.13-.346-.387-.35-.834-.007-.94.848-2.276 2.232-3.486 1.62-1.404 4.146-2.913 8.723-3.636 6.305-.748 10.927 2.192 12 3.932.46.746.279 1.237.13 1.463zm-35.166-8.675c-.826-.116-1.177-.468-1.28-.937-.32-1.449 1.91-3.836 4.262-5.559 7.123-5.119 16.356-6.227 24.098-2.894 3.786 1.613 7.355 4.485 9.089 7.316.839 1.371 1.002 2.434.459 2.992-.846.893-3.005-.129-6.521-1.671-3.515-1.542-8.079-3.265-13.589-2.928-7.804.477-14.58 3.903-16.518 3.681z" fill="#000000" fill-opacity="1" data-original-color="#ffffffff" stroke="none" stroke-opacity="1"/><path d="m321.508 158.626c.674.155 1.103-1.013.5-1.351-8.905-4.994-22.569-8.387-32.261-8.455-.478-.003-.746-.556-.461-.939 1.676-2.254 3.972-4.482 6.071-6.092.472-.362.185-1.122-.408-1.086-13.803.849-29.539 7.456-38.586 13.623-.446.304-1.023-.094-.913-.623.705-3.397 2.928-7.873 4.082-9.964.273-.494-.261-1.04-.764-.783-14.54 7.438-30.774 20.686-43.959 35.923-.466.538.226 1.298.801.88 11.389-8.284 27.001-15.987 47.455-20.976 22.912-5.589 44.969-3.246 58.443-.157z" fill="#000000" fill-opacity="1" data-original-color="#ffffffff" stroke="none" stroke-opacity="1"/><path d="m272.278 111.395s-14.479-16.788-18.85-18.026c-26.892-7.268-84.984 32.795-122.074 85.724-15.008 21.417-36.492 59.341-26.219 78.848 1.266 2.419 8.43 8.629 12.276 11.837 6.434-9.347 16.956-16.113 28.895-18.434 15.2-40.79 40.573-78.38 74.162-104.244 24.929-20.79 51.81-35.705 51.81-35.705z" fill="#000000" fill-opacity="1" data-original-color="#ffffffff" stroke="none" stroke-opacity="1"/></g></g><g/><g/><g/><g/><g/><g/><g/><g/><g/><g/><g/><g/><g/><g/><g/></g></svg>