<svg enable-background="new 0 0 31.144 32.014" height="32.014" viewBox="0 0 31.144 32.014" width="31.144" xmlns="http://www.w3.org/2000/svg"><g><g id="Paypal_1_"><g id="Paypal"><path id="Outer_P" d="m24.976 3.083c-.684-1.101-1.609-1.89-2.779-2.367-1.171-.477-2.76-.716-4.771-.716h-5.111l-.002.014h-6.313l-6 28h6l2.357-11h9.262c.537 0 2.245-.485 3.019-.837.909-.413 1.759-1.021 2.548-1.822s1.456-1.871 1.999-3.207.815-2.711.815-4.124c0-1.527-.342-2.84-1.024-3.941z" fill="#38447e"/><path id="Shadow" d="m22.932 4.014h-11.789l-2.786 13h9.262c.537 0 2.245-.485 3.019-.837.909-.413 1.759-1.021 2.548-1.822s1.456-1.871 1.999-3.207.815-2.711.815-4.124c0-1.032-.17-1.958-.481-2.795-.759-.13-1.627-.199-2.587-.215z" fill="#212c63"/><path id="Inner_P" d="m30.118 7.083c-.684-1.101-1.609-1.89-2.779-2.367-.518-.21-1.13-.367-1.812-.485l.135.428s-.005.001-.006.002c.22.722.344 1.504.344 2.363 0 1.412-.272 2.787-.815 4.123s-1.21 2.405-1.999 3.207-1.639 1.409-2.548 1.822c-.773.352-2.481.837-3.019.837h-9.262l-3.214 15h6l2.357-11h9.263c.537 0 2.244-.484 3.018-.837.91-.413 1.76-1.021 2.549-1.822s1.455-1.871 1.998-3.207.816-2.711.816-4.123c0-1.527-.342-2.84-1.026-3.941z" fill="#5fccff"/></g></g></g></svg>