<svg width="124" height="62" viewBox="0 0 124 62" fill="none" xmlns="http://www.w3.org/2000/svg">
<path d="M84.4022 60.5432V60.226H83.8253V59.8224C83.8253 58.8037 83.172 58.5442 82.5425 58.5442C81.9131 58.5442 81.255 58.8181 81.255 59.7503V60.1491H81.627V59.7792C81.627 59.0536 82.0657 58.8662 82.5425 58.8662C83.0194 58.8662 83.4485 59.092 83.4485 59.8464V61.8309H83.8253V60.5432H84.4022ZM79.6338 61.8838C80.1917 61.8838 80.9069 61.6387 80.9069 60.6489V60.3798H80.5398V60.6056C80.5398 61.3504 80.1154 61.5667 79.6338 61.5667C79.1521 61.5667 78.723 61.3792 78.723 60.6681V58.5875H77.6644V58.9046H78.3463V60.7017C78.3463 61.6387 79.0043 61.8838 79.6338 61.8838ZM75.2944 58.5923V61.8309H75.6759V59.6734C75.7856 59.6302 75.9239 59.6014 76.1384 59.6014C76.744 59.6014 76.5295 60.3365 76.8346 60.7882C76.9729 60.9948 77.1589 61.1006 77.3783 61.1006C77.4307 61.1006 77.4927 61.1006 77.5499 61.0813L77.5833 60.7498C77.302 60.7498 77.178 60.6825 77.0778 60.4951C76.9062 60.1732 77.0302 59.2794 76.1814 59.2794C75.962 59.2794 75.8094 59.3179 75.6711 59.3707V58.5923H75.2897H75.2944ZM73.0008 58.5442C72.3761 58.5442 71.7181 58.8662 71.7181 59.7936V61.8261H72.0852V59.8176C72.0852 59.0872 72.5382 58.8662 73.0008 58.8662C73.4967 58.8662 73.9068 59.1112 73.9068 59.8416V61.8261H74.2787V59.8176C74.2787 58.7845 73.6207 58.5394 73.0008 58.5394V58.5442ZM69.7773 61.8838C70.3352 61.8838 71.0505 61.6387 71.0505 60.6489V60.3798H70.6833V60.6056C70.6833 61.3504 70.2589 61.5667 69.7773 61.5667C69.2957 61.5667 68.8665 61.3792 68.8665 60.6681V58.5875H67.8079V58.9046H68.4898V60.7017C68.4898 61.6387 69.1478 61.8838 69.7773 61.8838ZM66.0149 61.8838C66.5872 61.8838 67.2881 61.6195 67.2881 60.5768V58.5875H66.921V60.5624C66.921 61.3312 66.5109 61.557 66.0149 61.557C65.5572 61.557 65.0994 61.3792 65.0994 60.6681V58.5875H64.7275V60.7017C64.7275 61.6387 65.3855 61.8838 66.0149 61.8838ZM63.0156 58.9046V58.5875H61.9856V60.5624C61.9856 61.3312 61.5802 61.557 61.0796 61.557C60.6218 61.557 60.164 61.3792 60.164 60.6681V58.5875H59.7825V60.7017C59.7825 61.6387 60.4549 61.8838 61.0796 61.8838C61.6565 61.8838 62.3575 61.6195 62.3575 60.5768V58.9046H63.0156ZM57.4507 61.8838C57.7702 61.8838 58.1231 61.8069 58.3806 61.5522L59.0339 61.9943L59.2151 61.7204L58.5618 61.3024C58.6619 61.1198 58.7239 60.8795 58.7239 60.572V58.5827H58.3663V60.5576C58.3663 61.3264 57.9467 61.5522 57.446 61.5522C56.993 61.5522 56.5352 61.3744 56.5352 60.6633V58.5827H56.1537V60.6969C56.1537 61.6339 56.8213 61.879 57.446 61.879L57.4507 61.8838ZM55.4623 61.8309V61.5042H53.7838L55.0236 59.4957L54.3131 59.092C54.2082 59.0248 54.1605 58.9479 54.1605 58.8518C54.1605 58.7845 54.1986 58.7076 54.2511 58.6307L53.9793 58.4866C53.8791 58.6163 53.8267 58.7605 53.8267 58.8998C53.8267 59.0632 53.922 59.2266 54.1223 59.3371L54.5706 59.5918L53.3403 61.5715L53.4166 61.8213H55.4623V61.8309ZM52.9397 59.6446V59.3275H50.7462V58.5923H50.3695V60.7065C50.3695 61.6435 51.0419 61.8886 51.6666 61.8886C52.2197 61.8886 52.8921 61.6435 52.9397 60.6921L52.5821 60.6248C52.5726 61.36 52.1482 61.5618 51.6666 61.5618C51.1849 61.5618 50.7462 61.384 50.7462 60.6729V59.6446H52.9397ZM48.3095 58.5442C47.6849 58.5442 47.0173 58.8277 47.0173 59.7695V61.8309H47.3892V59.7792C47.3892 59.068 47.8518 58.871 48.3095 58.871C48.8102 58.871 49.2299 59.0968 49.2299 59.8656V60.1732H49.5875V59.8464C49.5875 58.7893 48.8865 58.5442 48.3095 58.5442ZM44.6855 61.8838C45.005 61.8838 45.3578 61.8069 45.6153 61.5522L46.2686 61.9943L46.4498 61.7204L45.7965 61.3024C45.8967 61.1198 45.9587 60.8795 45.9587 60.572V58.5827H45.601V60.5576C45.601 61.3264 45.1814 61.5522 44.6807 61.5522C44.2277 61.5522 43.7699 61.3744 43.7699 60.6633V58.5827H43.3885V60.6969C43.3885 61.6339 44.056 61.879 44.6807 61.879L44.6855 61.8838ZM42.511 60.7738V60.4519H40.3175V59.7743C40.3175 59.0488 40.7705 58.8662 41.2331 58.8662C41.729 58.8662 42.1391 59.0872 42.1391 59.8416L42.511 59.8176C42.511 58.7989 41.8721 58.5394 41.2331 58.5394C40.5941 58.5394 39.9504 58.8277 39.9504 59.784V61.8213H40.3175V60.769H42.511V60.7738ZM109.237 56.6751H109.546C109.642 56.4877 109.728 56.2618 109.728 55.8918V55.7237H109.351V56.036C109.351 56.2378 109.303 56.5117 109.237 56.6799V56.6751ZM106.766 53.9025C106.766 53.5662 106.89 53.1241 107.506 53.1241C108.121 53.1241 108.235 53.5998 108.235 53.8785C108.235 54.1572 108.145 54.6329 107.491 54.6329C107.186 54.6329 106.919 54.5368 106.762 54.4743V53.9025H106.766ZM108.655 55.5939V55.3056H106.762V54.7675C106.919 54.8251 107.186 54.9164 107.496 54.9164C108.23 54.9164 108.607 54.4984 108.607 53.8929C108.607 53.249 108.269 52.8118 107.52 52.8118C106.771 52.8118 106.404 53.2779 106.404 53.8737V55.296H105.88V55.5843H106.399V56.0937H106.762V55.5843H108.66L108.655 55.5939ZM104.935 56.257L105.04 55.9639L104.187 55.6564C104.816 55.4161 105.45 54.9548 105.45 54.1812C105.45 53.1818 104.888 52.8166 104.168 52.8166C103.448 52.8166 102.89 53.1722 102.885 54.0995L103.247 54.138C103.247 53.2971 103.7 53.1385 104.168 53.1385C104.635 53.1385 105.078 53.3548 105.078 54.186C105.078 54.9404 104.296 55.3681 103.786 55.5122L102.909 55.1903L102.79 55.5026L104.935 56.2522V56.257ZM100.114 52.8646H99.7377V56.1033H100.114V54.3014C100.262 53.9842 100.663 53.8593 101.04 53.8593C101.535 53.8593 101.912 54.0851 101.912 54.8395V55.3537H102.289V54.8203C102.289 53.8112 101.678 53.5325 101.092 53.5325C100.753 53.5325 100.367 53.6431 100.114 53.8881V52.8598V52.8646ZM99.1846 53.1818V52.8646H98.1546V54.8395C98.1546 55.6083 97.7493 55.8342 97.2486 55.8342C96.7908 55.8342 96.333 55.6564 96.333 54.9452V52.8646H95.9515V54.9789C95.9515 55.9159 96.6239 56.1609 97.2486 56.1609C97.8255 56.1609 98.5265 55.8966 98.5265 54.8539V53.1818H99.1846ZM91.5264 52.8646V56.1033H91.9031V53.917H92.7805V55.0221C92.7805 55.9255 93.3241 56.1561 93.9297 56.1561C94.5353 56.1561 95.0741 55.8966 95.0741 54.8732V53.5998H94.707V54.8539C94.707 55.6083 94.4304 55.8294 93.9297 55.8294C93.4862 55.8294 93.1477 55.6612 93.1477 54.9645V53.5998H91.9031V52.8646H91.5264ZM88.0406 56.1561C88.6128 56.1561 89.3138 55.8918 89.3138 54.8491V52.8598H88.9466V54.8347C88.9466 55.6035 88.5365 55.8294 88.0406 55.8294C87.5828 55.8294 87.1251 55.6516 87.1251 54.9404V52.8598H86.7531V54.9741C86.7531 55.9111 87.4112 56.1561 88.0406 56.1561ZM84.4213 56.1561C84.7408 56.1561 85.0937 56.0792 85.3512 55.8246L86.0045 56.2666L86.1857 55.9927L85.5324 55.5747C85.6325 55.3921 85.6945 55.1519 85.6945 54.8443V52.855H85.3369V54.8299C85.3369 55.5987 84.9172 55.8246 84.4165 55.8246C83.9635 55.8246 83.5058 55.6468 83.5058 54.9356V52.855H83.1243V54.9693C83.1243 55.9063 83.7919 56.1513 84.4165 56.1513L84.4213 56.1561ZM82.5235 54.8155V54.4984H81.9465V54.0947C81.9465 53.0761 81.2932 52.8166 80.6637 52.8166C80.0343 52.8166 79.3763 53.0905 79.3763 54.0227V54.4215H79.7482V54.0515C79.7482 53.3259 80.1869 53.1385 80.6637 53.1385C81.1406 53.1385 81.5698 53.3644 81.5698 54.1188V56.1033H81.9465V54.8155H82.5235ZM77.2733 56.1561C77.5928 56.1561 77.9457 56.0792 78.2032 55.8246L78.8565 56.2666L79.0377 55.9927L78.3844 55.5747C78.4846 55.3921 78.5465 55.1519 78.5465 54.8443V52.855H78.1889V54.8299C78.1889 55.5987 77.7693 55.8246 77.2686 55.8246C76.8156 55.8246 76.3578 55.6468 76.3578 54.9356V52.855H75.9763V54.9693C75.9763 55.9063 76.6439 56.1513 77.2686 56.1513L77.2733 56.1561ZM73.9211 52.8166C73.2964 52.8166 72.6288 53.1001 72.6288 54.0419V56.1033H73.0008V54.0515C73.0008 53.3403 73.4633 53.1433 73.9211 53.1433C74.4218 53.1433 74.8414 53.3692 74.8414 54.138V54.4455H75.1991V54.1188C75.1991 53.0616 74.4981 52.8166 73.9211 52.8166ZM70.0396 55.8678C69.7487 55.8678 69.515 55.8005 69.515 55.5411C69.515 55.3248 69.7201 55.2191 69.9632 55.2191C70.2684 55.2191 70.5355 55.3969 70.812 55.5939C70.5927 55.7669 70.3209 55.863 70.0348 55.863L70.0396 55.8678ZM70.4878 52.8166C69.8393 52.8166 69.1955 53.1626 69.1955 54.0419L69.5675 54.0803C69.5675 53.35 70.0205 53.1289 70.4878 53.1289C70.9551 53.1289 71.4033 53.3692 71.4033 54.2197C71.4033 54.681 71.2651 55.0702 71.0457 55.3537C70.7405 55.1374 70.421 54.9212 69.968 54.9212C69.515 54.9212 69.1431 55.1615 69.1431 55.5459C69.1431 55.8918 69.372 56.1609 70.0491 56.1609C70.4544 56.1609 70.8025 56.0216 71.0838 55.7909C71.3509 55.9591 71.6418 56.1177 71.9994 56.1177L72.0518 55.8102C71.7657 55.8102 71.5416 55.69 71.3175 55.5459C71.6084 55.1951 71.78 54.7194 71.78 54.2005C71.78 53.2442 71.2317 52.8262 70.4878 52.8262V52.8166ZM67.2691 52.8166C66.6444 52.8166 65.9768 53.1001 65.9768 54.0419V56.1033H66.3487V54.0515C66.3487 53.3403 66.8113 53.1433 67.2691 53.1433C67.7697 53.1433 68.1894 53.3692 68.1894 54.138V54.4455H68.547V54.1188C68.547 53.0616 67.846 52.8166 67.2691 52.8166ZM63.645 56.1561C63.9645 56.1561 64.3174 56.0792 64.5749 55.8246L65.2281 56.2666L65.4093 55.9927L64.7561 55.5747C64.8562 55.3921 64.9182 55.1519 64.9182 54.8443V52.855H64.5606V54.8299C64.5606 55.5987 64.1409 55.8246 63.6402 55.8246C63.1872 55.8246 62.7295 55.6468 62.7295 54.9356V52.855H62.348V54.9693C62.348 55.9063 63.0156 56.1513 63.6402 56.1513L63.645 56.1561ZM61.4706 55.0461V54.7242H59.2771V54.0467C59.2771 53.3211 59.7301 53.1385 60.1926 53.1385C60.6885 53.1385 61.0986 53.3596 61.0986 54.114L61.4706 54.0899C61.4706 53.0713 60.8316 52.8118 60.1926 52.8118C59.5536 52.8118 58.9099 53.1001 58.9099 54.0563V56.0937H59.2771V55.0413H61.4706V55.0461ZM56.4589 56.6703H56.7688C56.8642 56.4829 56.95 56.257 56.95 55.887V55.7189H56.5733V56.0312C56.5733 56.233 56.5256 56.5069 56.4589 56.6751V56.6703ZM53.8076 52.8598H53.4309V56.0985H53.8076V54.2966C53.9554 53.9794 54.356 53.8545 54.7327 53.8545C55.2286 53.8545 55.6053 54.0803 55.6053 54.8347V55.3489H55.982V54.8155C55.982 53.8064 55.3717 53.5277 54.7851 53.5277C54.4466 53.5277 54.0603 53.6383 53.8076 53.8833V52.855V52.8598ZM51.452 56.1513C52.0099 56.1513 52.7252 55.9063 52.7252 54.9164V54.6473H52.358V54.8732C52.358 55.6179 51.9336 55.8342 51.452 55.8342C50.9704 55.8342 50.5412 55.6468 50.5412 54.9356V52.855H49.4826V53.1722H50.1645V54.9693C50.1645 55.9063 50.8225 56.1513 51.452 56.1513ZM47.1603 52.8598H46.7836V56.0985H47.1603V54.2966C47.3082 53.9794 47.7087 53.8545 48.0854 53.8545C48.5813 53.8545 48.958 54.0803 48.958 54.8347V55.3489H49.3348V54.8155C49.3348 53.8064 48.7244 53.5277 48.1379 53.5277C47.7945 53.5277 47.4131 53.6383 47.1603 53.8833V52.855V52.8598ZM43.3789 53.9602C43.3789 53.3548 43.7509 53.1289 44.2277 53.1289C44.757 53.1289 45.1337 53.3884 45.1337 54.1236V54.7242H44.2039C43.7604 54.7242 43.3789 54.5704 43.3789 53.9602ZM44.2277 52.8166C43.5887 52.8166 43.0022 53.1577 43.0022 53.9506C43.0022 54.7434 43.4934 55.0413 44.1896 55.0413H45.1337V56.0985H45.5104V55.0413H46.0683V54.7242H45.5104V54.1043C45.5104 53.0953 44.8762 52.8118 44.2277 52.8118V52.8166ZM39.1207 53.6527C39.1207 53.2971 39.4068 53.0905 39.8645 53.0905C40.3223 53.0905 40.6084 53.2587 40.6084 53.6527C40.6084 54.0034 40.3271 54.1908 39.8931 54.1956H39.8598C39.402 54.1956 39.1159 54.0131 39.1159 53.6527H39.1207ZM38.7773 53.6527C38.7773 53.965 38.9251 54.162 39.1731 54.2725C38.9299 54.3302 38.7678 54.4263 38.6676 54.5272L38.9204 54.7434C39.0968 54.5849 39.3638 54.4791 39.8645 54.4791C40.5607 54.4791 40.8421 54.7242 40.8421 55.1182C40.8421 55.5411 40.5607 55.8438 39.8645 55.8438C39.3925 55.8438 39.0348 55.7333 38.8107 55.3248L38.5246 55.5219C38.7964 56.0216 39.2542 56.1609 39.8645 56.1609C40.5083 56.1609 41.214 55.9159 41.214 55.123C41.214 54.6569 40.9374 54.3975 40.5178 54.2821C40.7849 54.1668 40.9518 53.965 40.9518 53.6623C40.9518 52.9992 40.3223 52.8262 39.8645 52.8262C39.4068 52.8262 38.7726 52.9992 38.7726 53.6623L38.7773 53.6527ZM36.7793 56.1561C37.3372 56.1561 38.0525 55.9111 38.0525 54.9212V54.6521H37.6853V54.878C37.6853 55.6228 37.2609 55.839 36.7793 55.839C36.2977 55.839 35.8685 55.6516 35.8685 54.9404V52.8598H34.8099V53.177H35.4918V54.9741C35.4918 55.9111 36.1499 56.1561 36.7793 56.1561ZM32.9598 56.1561C33.2793 56.1561 33.6321 56.0792 33.8896 55.8246L34.5429 56.2666L34.7241 55.9927L34.0708 55.5747C34.171 55.3921 34.2329 55.1519 34.2329 54.8443V52.855H33.8753V54.8299C33.8753 55.5987 33.4557 55.8246 32.955 55.8246C32.502 55.8246 32.0442 55.6468 32.0442 54.9356V52.855H31.6627V54.9693C31.6627 55.9063 32.3303 56.1513 32.955 56.1513L32.9598 56.1561ZM29.66 54.6858C29.0877 54.6858 28.9065 54.3302 28.9065 53.8977C28.9065 53.6094 29.0305 53.1193 29.6123 53.1193C30.2274 53.1193 30.4039 53.5998 30.4039 54.0034C30.4039 54.1908 30.3609 54.383 30.2846 54.5656C30.1082 54.6281 29.8745 54.6858 29.66 54.6858ZM28.6681 56.3387V56.0072H30.2942C30.5421 56.0072 30.7281 56.0312 30.8426 56.3387L31.1287 56.1946C31.0238 55.7957 30.7376 55.6804 30.2989 55.7044L29.4597 55.7237L29.4263 55.6996C30.1082 55.4642 30.7519 54.7674 30.7519 53.989C30.7519 53.2875 30.3705 52.8118 29.598 52.8118C28.9542 52.8118 28.5346 53.2683 28.5346 53.9218C28.5346 54.6329 28.9781 54.95 29.5598 54.95C29.7601 54.95 29.9651 54.902 30.113 54.8299C29.8459 55.2287 29.3643 55.5699 28.6967 55.6948H28.6586V55.3152H28.32V56.3387H28.6586H28.6681ZM26.055 56.1561C26.3745 56.1561 26.7273 56.0792 26.9848 55.8246L27.6381 56.2666L27.8193 55.9927L27.166 55.5747C27.2662 55.3921 27.3282 55.1519 27.3282 54.8443V52.855H26.9705V54.8299C26.9705 55.5987 26.5509 55.8246 26.0502 55.8246C25.5972 55.8246 25.1394 55.6468 25.1394 54.9356V52.855H24.758V54.9693C24.758 55.9063 25.4255 56.1513 26.0502 56.1513L26.055 56.1561ZM22.7027 52.8166C22.0781 52.8166 21.4105 53.1001 21.4105 54.0419V56.1033H21.7824V54.0515C21.7824 53.3403 22.245 53.1433 22.7027 53.1433C23.2034 53.1433 23.6231 53.3692 23.6231 54.138V54.4455H23.9807V54.1188C23.9807 53.0616 23.2797 52.8166 22.7027 52.8166ZM20.5712 53.917V53.5998H18.3777V52.8646H18.001V54.9789C18.001 55.9159 18.6734 56.1609 19.298 56.1609C19.8512 56.1609 20.5235 55.9159 20.5712 54.9645L20.2136 54.8972C20.204 55.6324 19.7797 55.8342 19.298 55.8342C18.8164 55.8342 18.3777 55.6564 18.3777 54.9452V53.917H20.5712ZM14.6344 53.9602C14.6344 53.3548 15.0064 53.1289 15.4832 53.1289C16.0173 53.1289 16.3893 53.3884 16.3893 54.1236V54.7242H15.4594C15.0159 54.7242 14.6344 54.5704 14.6344 53.9602ZM15.4832 52.8166C14.8443 52.8166 14.2577 53.1577 14.2577 53.9506C14.2577 54.7434 14.7489 55.0413 15.4451 55.0413H16.3893V56.0985H16.766V55.0413H17.3239V54.7242H16.766V54.1043C16.766 53.0953 16.1365 52.8118 15.4832 52.8118V52.8166ZM52.2388 18.3641C52.4152 19.3203 53.1066 19.7528 53.8171 18.8687C53.8601 18.8158 53.903 18.7582 53.9459 18.6957L53.9554 18.6813C54.3464 18.1143 54.6945 17.2734 54.9902 16.4325C55.3049 15.5291 55.6578 14.3951 56.0059 13.1698C56.0822 12.9104 56.1537 12.6461 56.2252 12.377L56.3397 11.9493C56.478 11.4304 56.7068 10.5607 56.9882 9.34499C54.0937 11.3872 51.6332 16.0144 52.234 18.3641M63.2969 5.8613C63.8214 3.92485 64.408 2.25749 64.8896 0.0183215H66.2295C66.1628 0.412338 66.1055 0.78233 66.0626 1.11869C67.8031 -0.913865 68.4946 0.888042 68.4469 2.68034C68.4373 2.97345 68.4326 3.76629 68.4373 4.03537C68.4516 4.7273 68.733 5.12132 69.1812 5.27989C69.6819 5.45768 70.3924 5.36158 71.184 5.06366C71.5416 4.9099 71.9231 4.71769 72.3093 4.48705C72.4143 4.42458 72.5287 4.56874 72.4429 4.67445C72.419 4.70328 72.3809 4.7273 72.3237 4.76094H72.3141L72.3093 4.77055C71.9517 4.97236 71.5988 5.14054 71.2698 5.26547C70.9503 5.40002 70.6356 5.51053 70.3304 5.59702C69.6676 5.77962 69.0477 5.84208 68.5327 5.75079C68.0034 5.65949 67.5885 5.40963 67.3597 4.97236C67.2404 4.74652 67.1737 4.47263 67.1689 4.14589C67.1641 3.80473 67.1832 2.94942 67.2023 2.60826C67.2357 2.06048 67.2643 1.55595 67.1785 1.24362C66.9591 0.465194 66.282 1.49829 66.1151 1.74815C65.891 2.0797 65.6573 2.48813 65.4236 2.99267C64.2458 6.01026 62.1858 12.5836 62.4863 15.5916C62.5959 16.5382 62.9631 17.4079 63.8119 17.9797C64.6035 18.5131 65.9005 18.3978 67.5266 17.9028C73.1963 16.1682 78.6371 9.87835 85.7136 9.80628C87.9977 9.78225 90.9637 11.0027 91.3166 13.7849C91.3356 13.9194 91.1163 13.905 91.0972 13.7945C90.6776 11.4736 87.5399 10.6712 85.6611 10.6183C79.1712 10.4405 71.9803 16.8553 67.4073 18.3834C67.0116 18.5131 66.6158 18.6236 66.2438 18.6813C65.4809 18.8543 64.737 18.9311 64.0456 18.8591C63.7118 18.8254 63.4066 18.7533 63.13 18.6572C61.2178 17.9797 60.9365 16.2018 61.0891 14.4864C61.7948 10.9643 62.2669 9.30655 63.316 5.8565L63.2969 5.8613ZM90.1101 33.6155H87.6925V41.9283C87.6925 42.3751 87.826 42.8316 88.3601 42.8316V43.1776H85.2939V42.8316C85.828 42.8316 85.9615 42.3751 85.9615 41.9283V28.4596C85.952 28.0224 85.8137 27.5851 85.2939 27.5851V27.2391H88.3601V27.5851C87.826 27.5851 87.6925 28.0416 87.6925 28.4884V32.0298C88.67 32.0298 89.948 32.0346 90.8683 32.0298L90.1101 33.6059V33.6155ZM81.4076 35.1195C81.4076 30.4633 77.6596 26.6913 73.0437 26.6913C68.4278 26.6913 64.6798 30.4633 64.6798 35.1195V41.7793C64.6798 42.2838 64.5176 42.7836 63.9216 42.7836V43.1776H67.7268V42.7836C67.1308 42.7836 66.9734 42.279 66.9686 41.7793V35.1195C66.9686 30.569 69.6867 27.8013 73.0437 27.8013C76.4007 27.8013 79.1188 30.569 79.1188 35.1195V41.7937C79.114 42.2935 78.9519 42.7884 78.3606 42.7884V43.1824H82.1658V42.7884C81.5602 42.7884 81.4076 42.2694 81.4076 41.7601V35.1243V35.1195ZM18.4588 42.3271L18.4111 42.3079L5.31205 38.4734L3.78613 38.0265C7.6963 34.7206 11.5922 31.3715 15.5214 28.0944C15.6215 28.0079 15.7264 27.9263 15.8361 27.8398C15.9362 27.7629 17.5337 26.5039 18.8116 26.3069C18.8879 26.4943 19.5794 28.2242 19.5794 28.2242C17.9104 28.0031 16.3797 29.3053 16.3702 29.3149C16.1937 29.435 16.0221 29.5648 15.8552 29.6945L7.26713 36.955L18.1774 40.1504L19.1359 40.4339C19.4363 40.5252 19.6318 40.6453 19.6318 40.9865V42.6442L19.6414 42.673H19.6318V42.7692V43.1343H19.1884C19.1836 42.6971 18.9261 42.5049 18.5065 42.3511L18.4492 42.3319L18.4588 42.3271ZM42.1582 43.1776C33.6321 43.1776 28.6824 33.7933 33.4605 26.6865L35.2486 27.686C31.6007 32.443 34.6144 42.0628 42.1582 42.0628C49.7019 42.0628 52.7204 32.443 49.0677 27.686L50.8559 26.6865C53.7551 30.9967 53.0733 36.1477 50.1836 39.5305L51.5998 40.9576V43.1776L49.082 40.6405C47.2843 42.2022 44.9048 43.1776 42.1582 43.1776ZM109.651 43.1776C101.125 43.1776 96.1757 33.7933 100.954 26.6865L102.742 27.686C99.094 32.443 102.108 42.0628 109.651 42.0628C117.195 42.0628 120.214 32.443 116.561 27.686L118.349 26.6865C121.248 30.9967 120.566 36.1477 117.677 39.5305L116.575 40.6405C114.778 42.2022 112.398 43.1776 109.651 43.1776ZM57.7178 11.613C57.5318 12.3338 57.3411 13.0305 57.1551 13.6984C56.7355 15.1928 55.901 19.0368 54.2797 19.7624C53.059 20.3054 52.1434 19.378 52.0003 18.2392C51.5473 16.0481 53.9173 10.9114 57.1408 8.67708C57.837 5.61624 58.3615 2.67553 58.1565 1.50309C57.9943 0.570906 57.0836 1.6953 56.8547 1.96919C56.2491 2.69956 55.5624 3.79512 54.8662 5.42404L54.3989 6.5196L53.8171 6.46194C54.1366 4.8138 54.7756 2.52177 55.5576 0.0615673L57.1885 0.00390625C57.0693 0.436364 56.9643 0.844796 56.8737 1.2244C59.2961 -1.09165 59.5107 1.56075 59.3104 3.48279C59.0625 5.36158 58.9862 6.13039 58.5856 7.95152C59.3391 7.62477 60.5169 7.12504 62.8201 6.65414C62.9488 6.63492 62.9631 6.81271 62.8439 6.83674C61.7519 7.07699 59.3724 7.88424 58.4569 8.57137C58.2518 9.49395 58.0611 10.2339 57.8417 11.1661L57.713 11.613H57.7178Z" fill="white"/>
</svg>
